# xmcd
#
# Track frame offsets: 
#        183
#        15670
#        32733
#        52403
#        69203
#        102315
#        121533
#        147823
#        157980
#        177718
#
# Disc length: 2662 seconds
#
# Revision: 4
# Processed by: cddbd v1.5.2PL0 Copyright (c) Steve Scherf et al.
# Submitted via: ExactAudioCopy v0.95b3
#
DISCID=820a640a
DTITLE=Turner, Joe - The Boss Of The Blues
DYEAR=1956
DGENRE=Blues
TTITLE0=Cherry Red
TTITLE1=Roll 'Em Pete 
TTITLE2=I Want A Little Girl 
TTITLE3=Low Down Dog
TTITLE4=Wee Baby Blues
TTITLE5=You're Driving Me Crazy (What Did I Do?)
TTITLE6=How Long Blues
TTITLE7=Morning Glories
TTITLE8=St. Louis Blues
TTITLE9=Piney Brown Blues
EXTD=Atlantic 8812-2\n\nJoe Turner:  vocals\nJoe Newman:  trumpet\nLaw
EXTD=rence Brown:  trombone\nPete Brown:  alto sax\nFrank Wess:  tenor
EXTD=sax\nPete Johnson:  piano\nFreddie Green:  guitar\nWalter Page: 
EXTD=bass\nCliff Leeman:  drums\n\nFirst released in 1956 as Atlantic
EXTD=1234, "Joe Turner Sings Kansas City Jazz:  the boss Of The Blues
EXTD="\n\nSubmitted 6/27/97\n[Jmccoy@efn.org]
EXTT0=
EXTT1=
EXTT2=
EXTT3=
EXTT4=
EXTT5=
EXTT6=
EXTT7=
EXTT8=
EXTT9=
PLAYORDER=
